STARTFONT 2.1
FONT -AK Design-Seymour-Medium-R-Normal-Sans-16-160-100-100-M-100-CDC6000-1
SIZE 16 100 100
FONTBOUNDINGBOX 16 16 -2 -2
STARTPROPERTIES 25
FONTNAME_REGISTRY ""
FOUNDRY "AK Design"
FAMILY_NAME "Seymour"
WEIGHT_NAME "Medium"
SLANT "R"
SETWIDTH_NAME "Normal"
ADD_STYLE_NAME "Sans"
PIXEL_SIZE 16
POINT_SIZE 160
RESOLUTION_X 100
RESOLUTION_Y 100
SPACING "M"
AVERAGE_WIDTH 160
CHARSET_REGISTRY "CDC6000"
CHARSET_ENCODING "1"
COPYRIGHT "Copyright Paul Koning, 2003."
FACE_NAME "Seymour"
X_HEIGHT 14
CAP_HEIGHT 14
WEIGHT 10
RESOLUTION 100
QUAD_WIDTH 16
FONT_ASCENT 15
FONT_DESCENT 3
_XMBDFED_INFO "Edited with xmbdfed 4.5."
ENDPROPERTIES
CHARS 47
STARTCHAR char65
ENCODING 1
SWIDTH 720 0
DWIDTH 16 0
BBX 12 14 0 0
BITMAP
0600
0600
0900
0900
1080
1080
1080
3FC0
2040
4020
4020
4020
8010
8010
ENDCHAR
STARTCHAR char66
ENCODING 2
SWIDTH 720 0
DWIDTH 16 0
BBX 12 14 0 0
BITMAP
FFC0
8020
8010
8010
8060
FF80
8040
8020
8010
8010
8010
8020
80C0
FF00
ENDCHAR
STARTCHAR char67
ENCODING 3
SWIDTH 720 0
DWIDTH 16 0
BBX 12 14 0 0
BITMAP
0E00
3180
4040
4020
8010
8000
8000
8000
8000
4000
2000
1010
0820
07C0
ENDCHAR
STARTCHAR char68
ENCODING 4
SWIDTH 720 0
DWIDTH 16 0
BBX 12 14 0 0
BITMAP
FFC0
8020
8010
8010
8010
8010
8010
8010
8010
8010
8020
8040
8380
FC00
ENDCHAR
STARTCHAR char69
ENCODING 5
SWIDTH 720 0
DWIDTH 16 0
BBX 12 14 0 0
BITMAP
FFF0
8000
8000
8000
8000
FC00
8000
8000
8000
8000
8000
8000
8000
FFF0
ENDCHAR
STARTCHAR char70
ENCODING 6
SWIDTH 720 0
DWIDTH 16 0
BBX 12 14 0 0
BITMAP
FFF0
8000
8000
8000
8000
FC00
8000
8000
8000
8000
8000
8000
8000
8000
ENDCHAR
STARTCHAR char71
ENCODING 7
SWIDTH 720 0
DWIDTH 16 0
BBX 12 14 0 0
BITMAP
0E00
3180
4040
4020
8010
8000
8000
8000
8180
4060
2010
1010
0820
07C0
ENDCHAR
STARTCHAR char72
ENCODING 8
SWIDTH 720 0
DWIDTH 16 0
BBX 12 14 0 0
BITMAP
8010
8010
8010
8010
8010
8010
FFF0
8010
8010
8010
8010
8010
8010
8010
ENDCHAR
STARTCHAR char73
ENCODING 9
SWIDTH 720 0
DWIDTH 16 0
BBX 1 14 5 0
BITMAP
80
80
80
80
80
80
80
80
80
80
80
80
80
80
ENDCHAR
STARTCHAR char74
ENCODING 10
SWIDTH 720 0
DWIDTH 16 0
BBX 8 14 1 0
BITMAP
01
01
01
01
01
01
01
01
01
81
81
41
22
1C
ENDCHAR
STARTCHAR char75
ENCODING 11
SWIDTH 720 0
DWIDTH 16 0
BBX 12 14 0 0
BITMAP
8030
80C0
8100
8200
8400
8800
9000
A000
C000
B000
8C00
8300
80C0
8030
ENDCHAR
STARTCHAR char76
ENCODING 12
SWIDTH 720 0
DWIDTH 16 0
BBX 12 14 0 0
BITMAP
8000
8000
8000
8000
8000
8000
8000
8000
8000
8000
8000
8000
8000
FFF0
ENDCHAR
STARTCHAR char77
ENCODING 13
SWIDTH 720 0
DWIDTH 16 0
BBX 12 14 0 0
BITMAP
8010
C030
A050
9890
8510
8210
8010
8010
8010
8010
8010
8010
8010
8010
ENDCHAR
STARTCHAR char78
ENCODING 14
SWIDTH 720 0
DWIDTH 16 0
BBX 12 14 0 0
BITMAP
C010
A010
9010
8810
8410
8210
8110
8090
8050
8030
8010
8010
8010
8010
ENDCHAR
STARTCHAR char79
ENCODING 15
SWIDTH 720 0
DWIDTH 16 0
BBX 12 14 0 0
BITMAP
01C0
0620
0820
1010
2010
4010
4010
8020
8020
8040
8040
4080
2300
1C00
ENDCHAR
STARTCHAR char80
ENCODING 16
SWIDTH 720 0
DWIDTH 16 0
BBX 12 14 0 0
BITMAP
FFC0
8020
8010
8010
8010
8060
8180
FE00
8000
8000
8000
8000
8000
8000
ENDCHAR
STARTCHAR char81
ENCODING 17
SWIDTH 720 0
DWIDTH 16 0
BBX 12 14 0 0
BITMAP
01C0
0620
0820
1010
2010
4010
4010
8020
8220
8140
80C0
40C0
2320
1C10
ENDCHAR
STARTCHAR char82
ENCODING 18
SWIDTH 720 0
DWIDTH 16 0
BBX 12 14 0 0
BITMAP
FFC0
8020
8010
8010
8010
8060
8180
FE00
8200
8100
8080
8040
8020
8010
ENDCHAR
STARTCHAR char83
ENCODING 19
SWIDTH 720 0
DWIDTH 16 0
BBX 12 14 0 0
BITMAP
0F00
30C0
4020
8010
8000
8000
4000
3800
0700
00E0
0010
0010
C060
3F80
ENDCHAR
STARTCHAR char84
ENCODING 20
SWIDTH 720 0
DWIDTH 16 0
BBX 12 14 0 0
BITMAP
FFF0
0200
0200
0200
0200
0200
0200
0200
0200
0200
0200
0200
0200
0200
ENDCHAR
STARTCHAR char85
ENCODING 21
SWIDTH 720 0
DWIDTH 16 0
BBX 12 14 0 0
BITMAP
8010
8010
8010
8010
8010
8010
8010
8010
4010
4010
2020
2020
1040
0F80
ENDCHAR
STARTCHAR char86
ENCODING 22
SWIDTH 720 0
DWIDTH 16 0
BBX 12 14 0 0
BITMAP
8010
8010
4020
4020
2040
2040
2040
1080
1080
1080
0900
0900
0600
0600
ENDCHAR
STARTCHAR char87
ENCODING 23
SWIDTH 720 0
DWIDTH 16 0
BBX 12 14 0 0
BITMAP
8010
8010
8010
8010
8010
8010
8010
8010
8210
8510
9890
A050
C030
8010
ENDCHAR
STARTCHAR char88
ENCODING 24
SWIDTH 720 0
DWIDTH 16 0
BBX 12 14 0 0
BITMAP
8010
4020
2040
1080
0880
0900
0600
0600
0900
1100
1080
2040
4020
8010
ENDCHAR
STARTCHAR char89
ENCODING 25
SWIDTH 720 0
DWIDTH 16 0
BBX 12 14 0 0
BITMAP
8010
4020
2020
1040
0880
0500
0200
0200
0200
0200
0200
0200
0200
0200
ENDCHAR
STARTCHAR char90
ENCODING 26
SWIDTH 720 0
DWIDTH 16 0
BBX 12 14 0 0
BITMAP
FFF0
0010
0020
0040
0080
0100
0200
0400
0800
1000
2000
4000
8000
FFF0
ENDCHAR
STARTCHAR char48
ENCODING 27
SWIDTH 720 0
DWIDTH 16 0
BBX 12 14 0 0
BITMAP
0FC0
1020
2010
4010
8010
8010
8010
8010
8010
8010
8010
8020
4040
3F80
ENDCHAR
STARTCHAR char49
ENCODING 28
SWIDTH 720 0
DWIDTH 16 0
BBX 5 14 2 0
BITMAP
18
28
48
88
08
08
08
08
08
08
08
08
08
08
ENDCHAR
STARTCHAR char50
ENCODING 29
SWIDTH 720 0
DWIDTH 16 0
BBX 10 14 2 0
BITMAP
0F00
3080
4080
8040
0040
0040
0080
0100
0200
0400
1800
6000
8000
FFC0
ENDCHAR
STARTCHAR char51
ENCODING 30
SWIDTH 720 0
DWIDTH 16 0
BBX 11 14 1 0
BITMAP
1F80
6040
8020
0020
0020
0040
0780
0080
0040
0020
0020
8020
40C0
3F00
ENDCHAR
STARTCHAR char52
ENCODING 31
SWIDTH 720 0
DWIDTH 16 0
BBX 11 14 1 0
BITMAP
0200
0600
0600
0A00
0A00
1200
2200
2200
4200
8200
FFE0
0200
0200
0200
ENDCHAR
STARTCHAR char53
ENCODING 32
SWIDTH 720 0
DWIDTH 16 0
BBX 12 14 0 0
BITMAP
FFE0
8000
8000
8000
8000
FF00
00C0
0020
0010
0010
8010
4020
3040
0F80
ENDCHAR
STARTCHAR char54
ENCODING 33
SWIDTH 720 0
DWIDTH 16 0
BBX 12 14 0 0
BITMAP
07C0
1820
2000
4000
4380
8C40
B020
C020
8010
8010
8010
8020
40C0
3F00
ENDCHAR
STARTCHAR char55
ENCODING 34
SWIDTH 720 0
DWIDTH 16 0
BBX 9 14 2 0
BITMAP
FF80
0080
0100
0200
0400
0400
0800
0800
1000
1000
2000
2000
4000
4000
ENDCHAR
STARTCHAR char56
ENCODING 35
SWIDTH 720 0
DWIDTH 16 0
BBX 12 14 0 0
BITMAP
07C0
1820
2010
4010
4020
2020
1FC0
2020
4010
8010
8010
8020
40C0
3F00
ENDCHAR
STARTCHAR char57
ENCODING 36
SWIDTH 720 0
DWIDTH 16 0
BBX 12 14 0 0
BITMAP
0FC0
3020
4010
8010
8010
8010
4030
40D0
2310
1C20
0020
0040
4180
3E00
ENDCHAR
STARTCHAR char43
ENCODING 37
SWIDTH 720 0
DWIDTH 16 0
BBX 11 11 0 0
BITMAP
0400
0400
0400
0400
0400
FFE0
0400
0400
0400
0400
0400
ENDCHAR
STARTCHAR char45
ENCODING 38
SWIDTH 720 0
DWIDTH 16 0
BBX 11 1 0 5
BITMAP
FFE0
ENDCHAR
STARTCHAR char42
ENCODING 39
SWIDTH 720 0
DWIDTH 16 0
BBX 11 11 0 0
BITMAP
0400
4440
2480
1500
0E00
FFE0
0E00
1500
2480
4440
0400
ENDCHAR
STARTCHAR char47
ENCODING 40
SWIDTH 720 0
DWIDTH 16 0
BBX 12 14 0 0
BITMAP
0010
0020
0040
0080
0080
0100
0200
0400
0800
1000
1000
2000
4000
8000
ENDCHAR
STARTCHAR char40
ENCODING 41
SWIDTH 720 0
DWIDTH 16 0
BBX 5 14 3 0
BITMAP
18
20
40
40
80
80
80
80
80
80
40
40
20
18
ENDCHAR
STARTCHAR char41
ENCODING 42
SWIDTH 720 0
DWIDTH 16 0
BBX 5 14 3 0
BITMAP
C0
20
10
10
08
08
08
08
08
08
10
10
20
C0
ENDCHAR
STARTCHAR char36
ENCODING 43
SWIDTH 720 0
DWIDTH 16 0
BBX 0 0 0 0
BITMAP
ENDCHAR
STARTCHAR char61
ENCODING 44
SWIDTH 720 0
DWIDTH 16 0
BBX 11 5 0 4
BITMAP
FFE0
0000
0000
0000
FFE0
ENDCHAR
STARTCHAR char32
ENCODING 45
SWIDTH 720 0
DWIDTH 16 0
BBX 0 0 0 0
BITMAP
ENDCHAR
STARTCHAR char44
ENCODING 46
SWIDTH 720 0
DWIDTH 16 0
BBX 2 6 4 -2
BITMAP
C0
C0
C0
40
40
80
ENDCHAR
STARTCHAR char46
ENCODING 47
SWIDTH 720 0
DWIDTH 16 0
BBX 2 3 4 0
BITMAP
C0
C0
C0
ENDCHAR
ENDFONT
